<svg xmlns="http://www.w3.org/2000/svg" viewBox="0 0 500 380">
  <rect width="500" height="380" fill="#070c17" rx="14"/>
  <line x1="266.7" y1="36.0" x2="266.7" y2="85.9" stroke="#2e5060" stroke-width="1.6" stroke-linecap="round"/>
  <line x1="266.7" y1="85.9" x2="265.2" y2="130.5" stroke="#2e5060" stroke-width="1.6" stroke-linecap="round"/>
  <line x1="265.2" y1="130.5" x2="317.9" y2="130.5" stroke="#2e5060" stroke-width="1.6" stroke-linecap="round"/>
  <line x1="317.9" y1="130.5" x2="356.0" y2="130.5" stroke="#2e5060" stroke-width="1.6" stroke-linecap="round"/>
  <line x1="356.0" y1="130.5" x2="392.7" y2="130.5" stroke="#2e5060" stroke-width="1.6" stroke-linecap="round"/>
  <line x1="392.7" y1="130.5" x2="392.7" y2="170.7" stroke="#2e5060" stroke-width="1.6" stroke-linecap="round"/>
  <line x1="392.7" y1="170.7" x2="392.7" y2="215.3" stroke="#2e5060" stroke-width="1.6" stroke-linecap="round"/>
  <line x1="392.7" y1="215.3" x2="392.7" y2="259.2" stroke="#2e5060" stroke-width="1.6" stroke-linecap="round"/>
  <line x1="392.7" y1="259.2" x2="363.4" y2="259.2" stroke="#2e5060" stroke-width="1.6" stroke-linecap="round"/>
  <line x1="363.4" y1="259.2" x2="363.4" y2="294.9" stroke="#2e5060" stroke-width="1.6" stroke-linecap="round"/>
  <line x1="363.4" y1="294.9" x2="363.4" y2="321.0" stroke="#2e5060" stroke-width="1.6" stroke-linecap="round"/>
  <line x1="363.4" y1="321.0" x2="323.1" y2="321.0" stroke="#2e5060" stroke-width="1.6" stroke-linecap="round"/>
  <line x1="363.4" y1="259.2" x2="332.6" y2="259.2" stroke="#2e5060" stroke-width="1.6" stroke-linecap="round"/>
  <line x1="332.6" y1="259.2" x2="293.8" y2="259.2" stroke="#2e5060" stroke-width="1.6" stroke-linecap="round"/>
  <line x1="293.8" y1="259.2" x2="264.5" y2="259.2" stroke="#2e5060" stroke-width="1.6" stroke-linecap="round"/>
  <line x1="264.5" y1="230.2" x2="264.5" y2="259.2" stroke="#2e5060" stroke-width="1.6" stroke-linecap="round"/>
  <line x1="264.5" y1="230.2" x2="265.2" y2="204.9" stroke="#2e5060" stroke-width="1.6" stroke-linecap="round"/>
  <line x1="265.2" y1="204.9" x2="265.2" y2="166.9" stroke="#2e5060" stroke-width="1.6" stroke-linecap="round"/>
  <line x1="265.2" y1="166.9" x2="265.2" y2="130.5" stroke="#2e5060" stroke-width="1.6" stroke-linecap="round"/>
  <line x1="265.2" y1="130.5" x2="222.7" y2="130.5" stroke="#2e5060" stroke-width="1.6" stroke-linecap="round"/>
  <line x1="222.7" y1="130.5" x2="222.7" y2="88.1" stroke="#2e5060" stroke-width="1.6" stroke-linecap="round"/>
  <line x1="222.7" y1="88.1" x2="222.7" y2="42.7" stroke="#2e5060" stroke-width="1.6" stroke-linecap="round"/>
  <line x1="222.7" y1="130.5" x2="186.8" y2="130.5" stroke="#2e5060" stroke-width="1.6" stroke-linecap="round"/>
  <line x1="186.8" y1="130.5" x2="186.8" y2="207.1" stroke="#2e5060" stroke-width="1.6" stroke-linecap="round"/>
  <line x1="186.8" y1="207.1" x2="185.4" y2="259.2" stroke="#2e5060" stroke-width="1.6" stroke-linecap="round"/>
  <line x1="213.9" y1="259.2" x2="185.4" y2="259.2" stroke="#2e5060" stroke-width="1.6" stroke-linecap="round"/>
  <line x1="239.6" y1="259.2" x2="213.9" y2="259.2" stroke="#2e5060" stroke-width="1.6" stroke-linecap="round"/>
  <line x1="264.5" y1="259.2" x2="239.6" y2="259.2" stroke="#2e5060" stroke-width="1.6" stroke-linecap="round"/>
  <line x1="186.8" y1="130.5" x2="150.9" y2="130.5" stroke="#2e5060" stroke-width="1.6" stroke-linecap="round"/>
  <line x1="150.9" y1="130.5" x2="107.7" y2="132.7" stroke="#2e5060" stroke-width="1.6" stroke-linecap="round"/>
  <line x1="107.7" y1="132.7" x2="107.7" y2="190.0" stroke="#2e5060" stroke-width="1.6" stroke-linecap="round"/>
  <line x1="107.7" y1="190.0" x2="107.7" y2="259.2" stroke="#2e5060" stroke-width="1.6" stroke-linecap="round"/>
  <line x1="150.9" y1="259.2" x2="107.7" y2="259.2" stroke="#2e5060" stroke-width="1.6" stroke-linecap="round"/>
  <line x1="185.4" y1="259.2" x2="150.9" y2="259.2" stroke="#2e5060" stroke-width="1.6" stroke-linecap="round"/>
  <line x1="266.7" y1="85.9" x2="267.4" y2="56.6" stroke="#2e5060" stroke-width="1.6" stroke-linecap="round"/>
  <line x1="265.2" y1="130.5" x2="265.8" y2="101.2" stroke="#2e5060" stroke-width="1.6" stroke-linecap="round"/>
  <line x1="317.9" y1="130.5" x2="336.8" y2="108.2" stroke="#2e5060" stroke-width="1.6" stroke-linecap="round"/>
  <line x1="356.0" y1="130.5" x2="380.1" y2="113.8" stroke="#2e5060" stroke-width="1.6" stroke-linecap="round"/>
  <line x1="392.7" y1="130.5" x2="418.9" y2="117.5" stroke="#2e5060" stroke-width="1.6" stroke-linecap="round"/>
  <line x1="392.7" y1="170.7" x2="421.4" y2="165.4" stroke="#2e5060" stroke-width="1.6" stroke-linecap="round"/>
  <line x1="392.7" y1="215.3" x2="421.5" y2="220.1" stroke="#2e5060" stroke-width="1.6" stroke-linecap="round"/>
  <line x1="392.7" y1="259.2" x2="418.8" y2="272.4" stroke="#2e5060" stroke-width="1.6" stroke-linecap="round"/>
  <line x1="363.4" y1="259.2" x2="387.9" y2="275.2" stroke="#2e5060" stroke-width="1.6" stroke-linecap="round"/>
  <line x1="363.4" y1="294.9" x2="383.9" y2="315.7" stroke="#2e5060" stroke-width="1.6" stroke-linecap="round"/>
  <line x1="363.4" y1="321.0" x2="381.4" y2="344.0" stroke="#2e5060" stroke-width="1.6" stroke-linecap="round"/>
  <line x1="332.6" y1="259.2" x2="353.8" y2="279.4" stroke="#2e5060" stroke-width="1.6" stroke-linecap="round"/>
  <line x1="293.8" y1="259.2" x2="305.9" y2="285.8" stroke="#2e5060" stroke-width="1.6" stroke-linecap="round"/>
  <line x1="264.5" y1="259.2" x2="264.7" y2="288.5" stroke="#2e5060" stroke-width="1.6" stroke-linecap="round"/>
  <line x1="264.5" y1="230.2" x2="264.8" y2="259.4" stroke="#2e5060" stroke-width="1.6" stroke-linecap="round"/>
  <line x1="265.2" y1="204.9" x2="268.6" y2="233.9" stroke="#2e5060" stroke-width="1.6" stroke-linecap="round"/>
  <line x1="265.2" y1="166.9" x2="266.5" y2="137.7" stroke="#2e5060" stroke-width="1.6" stroke-linecap="round"/>
  <line x1="222.7" y1="130.5" x2="206.8" y2="106.0" stroke="#2e5060" stroke-width="1.6" stroke-linecap="round"/>
  <line x1="222.7" y1="88.1" x2="212.1" y2="60.8" stroke="#2e5060" stroke-width="1.6" stroke-linecap="round"/>
  <line x1="186.8" y1="130.5" x2="164.2" y2="111.9" stroke="#2e5060" stroke-width="1.6" stroke-linecap="round"/>
  <line x1="186.8" y1="207.1" x2="158.0" y2="212.0" stroke="#2e5060" stroke-width="1.6" stroke-linecap="round"/>
  <line x1="185.4" y1="259.2" x2="162.8" y2="277.9" stroke="#2e5060" stroke-width="1.6" stroke-linecap="round"/>
  <line x1="213.9" y1="259.2" x2="196.1" y2="282.4" stroke="#2e5060" stroke-width="1.6" stroke-linecap="round"/>
  <line x1="239.6" y1="259.2" x2="229.3" y2="286.6" stroke="#2e5060" stroke-width="1.6" stroke-linecap="round"/>
  <line x1="150.9" y1="130.5" x2="125.4" y2="116.1" stroke="#2e5060" stroke-width="1.6" stroke-linecap="round"/>
  <line x1="107.7" y1="132.7" x2="80.5" y2="122.1" stroke="#2e5060" stroke-width="1.6" stroke-linecap="round"/>
  <line x1="107.7" y1="190.0" x2="78.5" y2="189.3" stroke="#2e5060" stroke-width="1.6" stroke-linecap="round"/>
  <line x1="107.7" y1="259.2" x2="80.7" y2="270.5" stroke="#2e5060" stroke-width="1.6" stroke-linecap="round"/>
  <line x1="150.9" y1="259.2" x2="125.6" y2="273.8" stroke="#2e5060" stroke-width="1.6" stroke-linecap="round"/>
  <circle cx="266.7" cy="85.9" r="5" fill="#070c17" stroke="#8aaab8" stroke-width="1.6"/>
  <circle cx="265.2" cy="130.5" r="5" fill="#070c17" stroke="#8aaab8" stroke-width="1.6"/>
  <circle cx="317.9" cy="130.5" r="5" fill="#070c17" stroke="#8aaab8" stroke-width="1.6"/>
  <circle cx="356.0" cy="130.5" r="5" fill="#070c17" stroke="#8aaab8" stroke-width="1.6"/>
  <circle cx="392.7" cy="130.5" r="5" fill="#070c17" stroke="#8aaab8" stroke-width="1.6"/>
  <circle cx="392.7" cy="170.7" r="5" fill="#070c17" stroke="#8aaab8" stroke-width="1.6"/>
  <circle cx="392.7" cy="215.3" r="5" fill="#070c17" stroke="#8aaab8" stroke-width="1.6"/>
  <circle cx="392.7" cy="259.2" r="5" fill="#070c17" stroke="#8aaab8" stroke-width="1.6"/>
  <circle cx="363.4" cy="259.2" r="5" fill="#070c17" stroke="#8aaab8" stroke-width="1.6"/>
  <circle cx="363.4" cy="294.9" r="5" fill="#070c17" stroke="#8aaab8" stroke-width="1.6"/>
  <circle cx="363.4" cy="321.0" r="5" fill="#070c17" stroke="#8aaab8" stroke-width="1.6"/>
  <circle cx="332.6" cy="259.2" r="5" fill="#070c17" stroke="#8aaab8" stroke-width="1.6"/>
  <circle cx="293.8" cy="259.2" r="5" fill="#070c17" stroke="#8aaab8" stroke-width="1.6"/>
  <circle cx="264.5" cy="259.2" r="5" fill="#070c17" stroke="#8aaab8" stroke-width="1.6"/>
  <circle cx="264.5" cy="230.2" r="5" fill="#070c17" stroke="#8aaab8" stroke-width="1.6"/>
  <circle cx="265.2" cy="204.9" r="5" fill="#070c17" stroke="#8aaab8" stroke-width="1.6"/>
  <circle cx="265.2" cy="166.9" r="5" fill="#070c17" stroke="#8aaab8" stroke-width="1.6"/>
  <circle cx="222.7" cy="130.5" r="5" fill="#070c17" stroke="#8aaab8" stroke-width="1.6"/>
  <circle cx="222.7" cy="88.1" r="5" fill="#070c17" stroke="#8aaab8" stroke-width="1.6"/>
  <circle cx="186.8" cy="130.5" r="5" fill="#070c17" stroke="#8aaab8" stroke-width="1.6"/>
  <circle cx="186.8" cy="207.1" r="5" fill="#070c17" stroke="#8aaab8" stroke-width="1.6"/>
  <circle cx="185.4" cy="259.2" r="5" fill="#070c17" stroke="#8aaab8" stroke-width="1.6"/>
  <circle cx="213.9" cy="259.2" r="5" fill="#070c17" stroke="#8aaab8" stroke-width="1.6"/>
  <circle cx="239.6" cy="259.2" r="5" fill="#070c17" stroke="#8aaab8" stroke-width="1.6"/>
  <circle cx="150.9" cy="130.5" r="5" fill="#070c17" stroke="#8aaab8" stroke-width="1.6"/>
  <circle cx="107.7" cy="132.7" r="5" fill="#070c17" stroke="#8aaab8" stroke-width="1.6"/>
  <circle cx="107.7" cy="190.0" r="5" fill="#070c17" stroke="#8aaab8" stroke-width="1.6"/>
  <circle cx="107.7" cy="259.2" r="5" fill="#070c17" stroke="#8aaab8" stroke-width="1.6"/>
  <circle cx="150.9" cy="259.2" r="5" fill="#070c17" stroke="#8aaab8" stroke-width="1.6"/>
  <circle cx="267.4" cy="56.6" r="6" fill="#e8633a"/>
  <circle cx="265.8" cy="101.2" r="6" fill="#e8633a"/>
  <circle cx="336.8" cy="108.2" r="6" fill="#e8633a"/>
  <circle cx="380.1" cy="113.8" r="6" fill="#e8633a"/>
  <circle cx="418.9" cy="117.5" r="6" fill="#e8633a"/>
  <circle cx="421.4" cy="165.4" r="6" fill="#e8633a"/>
  <circle cx="421.5" cy="220.1" r="6" fill="#e8633a"/>
  <circle cx="418.8" cy="272.4" r="6" fill="#e8633a"/>
  <circle cx="387.9" cy="275.2" r="6" fill="#e8633a"/>
  <circle cx="383.9" cy="315.7" r="6" fill="#e8633a"/>
  <circle cx="381.4" cy="344.0" r="6" fill="#e8633a"/>
  <circle cx="323.1" cy="321.0" r="6" fill="#e8633a"/>
  <circle cx="353.8" cy="279.4" r="6" fill="#e8633a"/>
  <circle cx="305.9" cy="285.8" r="6" fill="#e8633a"/>
  <circle cx="264.7" cy="288.5" r="6" fill="#e8633a"/>
  <circle cx="264.8" cy="259.4" r="6" fill="#e8633a"/>
  <circle cx="268.6" cy="233.9" r="6" fill="#e8633a"/>
  <circle cx="266.5" cy="137.7" r="6" fill="#e8633a"/>
  <circle cx="206.8" cy="106.0" r="6" fill="#e8633a"/>
  <circle cx="212.1" cy="60.8" r="6" fill="#e8633a"/>
  <circle cx="222.7" cy="42.7" r="6" fill="#e8633a"/>
  <circle cx="164.2" cy="111.9" r="6" fill="#e8633a"/>
  <circle cx="158.0" cy="212.0" r="6" fill="#e8633a"/>
  <circle cx="162.8" cy="277.9" r="6" fill="#e8633a"/>
  <circle cx="196.1" cy="282.4" r="6" fill="#e8633a"/>
  <circle cx="229.3" cy="286.6" r="6" fill="#e8633a"/>
  <circle cx="125.4" cy="116.1" r="6" fill="#e8633a"/>
  <circle cx="80.5" cy="122.1" r="6" fill="#e8633a"/>
  <circle cx="78.5" cy="189.3" r="6" fill="#e8633a"/>
  <circle cx="80.7" cy="270.5" r="6" fill="#e8633a"/>
  <circle cx="125.6" cy="273.8" r="6" fill="#e8633a"/>
  <circle cx="266.7" cy="36.0" r="9" fill="#3a9fd4"/>
</svg>