<svg xmlns="http://www.w3.org/2000/svg" viewBox="0 0 500 380">
  <rect width="500" height="380" fill="#070c17" rx="14"/>
  <line x1="36.0" y1="183.7" x2="130.4" y2="183.7" stroke="#2e5060" stroke-width="2.2" stroke-linecap="round"/>
  <line x1="130.4" y1="183.7" x2="243.7" y2="133.4" stroke="#2e5060" stroke-width="2.2" stroke-linecap="round"/>
  <line x1="243.7" y1="133.4" x2="243.7" y2="234.1" stroke="#2e5060" stroke-width="2.2" stroke-linecap="round"/>
  <line x1="243.7" y1="133.4" x2="338.1" y2="133.4" stroke="#2e5060" stroke-width="2.2" stroke-linecap="round"/>
  <line x1="338.1" y1="133.4" x2="338.1" y2="234.1" stroke="#2e5060" stroke-width="2.2" stroke-linecap="round"/>
  <line x1="338.1" y1="234.1" x2="243.7" y2="234.1" stroke="#2e5060" stroke-width="2.2" stroke-linecap="round"/>
  <line x1="243.7" y1="234.1" x2="464.0" y2="234.1" stroke="#2e5060" stroke-width="2.2" stroke-linecap="round"/>
  <line x1="243.7" y1="133.4" x2="243.7" y2="76.7" stroke="#2e5060" stroke-width="2.2" stroke-linecap="round"/>
  <line x1="338.1" y1="133.4" x2="419.9" y2="133.4" stroke="#2e5060" stroke-width="2.2" stroke-linecap="round"/>
  <line x1="338.1" y1="234.1" x2="419.9" y2="234.1" stroke="#2e5060" stroke-width="2.2" stroke-linecap="round"/>
  <line x1="243.7" y1="234.1" x2="243.7" y2="303.3" stroke="#2e5060" stroke-width="2.2" stroke-linecap="round"/>
  <circle cx="130.4" cy="183.7" r="9" fill="#070c17" stroke="#8aaab8" stroke-width="2.2"/>
  <circle cx="243.7" cy="133.4" r="9" fill="#070c17" stroke="#8aaab8" stroke-width="2.2"/>
  <circle cx="338.1" cy="133.4" r="9" fill="#070c17" stroke="#8aaab8" stroke-width="2.2"/>
  <circle cx="338.1" cy="234.1" r="9" fill="#070c17" stroke="#8aaab8" stroke-width="2.2"/>
  <circle cx="243.7" cy="234.1" r="9" fill="#070c17" stroke="#8aaab8" stroke-width="2.2"/>
  <circle cx="464.0" cy="234.1" r="10" fill="#e8633a"/>
  <circle cx="243.7" cy="76.7" r="10" fill="#e8633a"/>
  <circle cx="419.9" cy="133.4" r="10" fill="#e8633a"/>
  <circle cx="419.9" cy="234.1" r="10" fill="#e8633a"/>
  <circle cx="243.7" cy="303.3" r="10" fill="#e8633a"/>
  <circle cx="36.0" cy="183.7" r="13" fill="#3a9fd4"/>
</svg>